<?xml version="1.0" encoding="UTF-8"?>
<svg version="1.1" xmlns="http://www.w3.org/2000/svg" width="512" height="512">
<path d="M0 0 C16.7709598 14.63220598 31.04827999 33.56949765 35.32421875 55.81640625 C37.03351563 55.12804687 37.03351563 55.12804687 38.77734375 54.42578125 C68.96770932 42.57749902 101.00634877 40.44063958 131.44140625 53.0546875 C142.3758707 57.87152199 152.34003863 63.9226138 161.32421875 71.81640625 C162.12988281 72.47898437 162.93554688 73.1415625 163.765625 73.82421875 C184.72882964 91.60521549 197.4006491 117.87456133 201.32421875 144.81640625 C201.53305751 149.00109207 201.55217438 153.1827035 201.56445312 157.37231445 C201.57407439 159.34924444 201.60523319 161.32603171 201.63671875 163.30273438 C201.67114154 171.87831261 200.64733244 179.56024242 198.32421875 187.81640625 C199.54939209 187.79545898 200.77456543 187.77451172 202.03686523 187.75292969 C206.61584623 187.68010815 211.19477682 187.63445411 215.77416992 187.59667969 C217.74984365 187.57665979 219.72545884 187.54943533 221.70092773 187.51464844 C224.55337025 187.46570418 227.40502424 187.443341 230.2578125 187.42578125 C231.13005966 187.40513611 232.00230682 187.38449097 232.90098572 187.36322021 C240.77073054 187.36039034 247.63370384 189.79786548 253.63671875 195.00390625 C254.25160156 195.51308594 254.86648438 196.02226562 255.5 196.546875 C260.64976327 202.95375393 261.91458736 209.65196408 261.83888245 217.67698669 C261.84582797 218.62908856 261.8527735 219.58119043 261.8599295 220.56214386 C261.8781274 223.731044 261.86795512 226.89918937 261.85766602 230.06811523 C261.8647281 232.34876055 261.87347433 234.62940118 261.8837738 236.91003418 C261.90624453 243.08980469 261.90333338 249.26931879 261.89445233 255.44911456 C261.88933648 260.6131533 261.89663987 265.77714411 261.90392441 270.9411779 C261.92188671 283.82169682 261.91552027 296.70205695 261.8977546 309.58256847 C261.88306011 320.75273286 261.89768623 331.92262819 261.92652477 343.09275793 C261.95596179 354.58083542 261.96637108 366.06875906 261.95734257 377.55687577 C261.95241772 383.99917665 261.95460548 390.44126844 261.97513008 396.88354301 C261.99350859 402.94201518 261.9875012 408.99998806 261.96293068 415.05843353 C261.95792988 417.27795476 261.96139343 419.49751417 261.97407913 421.71700478 C261.99006466 424.75485364 261.97500614 427.79106929 261.95240784 430.82884216 C261.97016143 432.13582735 261.97016143 432.13582735 261.98827368 433.46921629 C261.87840023 440.77514495 259.54793952 447.26504812 254.58204371 452.73564428 C247.35849478 459.45237136 239.0954534 460.97116631 229.49045277 460.94783401 C228.70427412 460.94988665 227.91809547 460.95193928 227.10809323 460.95405412 C224.46371416 460.95972563 221.81938714 460.95826668 219.17500305 460.95684814 C217.26390672 460.95943169 215.35281093 460.96244482 213.4417159 460.96585155 C208.18198583 460.973926 202.92226941 460.97571137 197.66253388 460.97644901 C191.99298049 460.97829879 186.32343419 460.98584573 180.65388489 460.99258423 C168.25307953 461.00617112 155.85227741 461.01219279 143.45146585 461.01659489 C135.70989873 461.01935664 127.96833286 461.02359386 120.22676659 461.02809906 C98.7969852 461.04029206 77.36720546 461.05062678 55.93742085 461.05397415 C54.55178408 461.05419578 53.16614732 461.05441757 51.78051056 461.0546395 C50.39154008 461.05486014 49.0025696 461.05508063 47.61359912 461.05530095 C44.82711621 461.0557435 42.0406333 461.05619062 39.25415039 461.05664062 C38.5632654 461.05675002 37.87238042 461.05685941 37.16055952 461.05697211 C14.75901807 461.06060268 -7.64249103 461.07652301 -30.04402009 461.09983099 C-53.73166891 461.12443205 -77.41929382 461.13814039 -101.10695678 461.13934207 C-114.01812213 461.14025917 -126.9292451 461.14602038 -139.84039879 461.16416168 C-150.83398697 461.1795541 -161.82751968 461.18468818 -172.82111659 461.17642358 C-178.43039508 461.17251409 -184.03956182 461.17346138 -189.6488266 461.18748093 C-194.78537298 461.20020161 -199.92172344 461.19903833 -205.05826948 461.18689021 C-206.91494971 461.18493006 -208.77164372 461.18802634 -210.62830456 461.19673458 C-233.37113291 461.2966377 -233.37113291 461.2966377 -242.91796875 453.56640625 C-248.53482005 447.97451873 -250.77897338 442.24464794 -250.82817304 434.37744755 C-250.8286708 433.48641631 -250.82916856 432.59538508 -250.8296814 431.67735291 C-250.83406365 430.73037759 -250.8384459 429.78340227 -250.84296095 428.80773073 C-250.85636282 425.62043505 -250.86253099 422.43316702 -250.86865234 419.24584961 C-250.87655231 416.96609369 -250.8848212 414.68633903 -250.89343262 412.40658569 C-250.91966822 404.90648597 -250.93496331 397.40638062 -250.94921875 389.90625 C-250.95457808 387.32508401 -250.95995559 384.74391806 -250.9653511 382.16275215 C-250.98698343 371.42512271 -251.00587096 360.68749653 -251.0169735 349.94985104 C-251.01990309 347.1635888 -251.02286476 344.3773266 -251.02587891 341.59106445 C-251.02662496 340.89857082 -251.02737101 340.20607719 -251.02813967 339.4925989 C-251.04078391 328.2832774 -251.07399455 317.07411487 -251.11568074 305.86486762 C-251.15815184 294.34988947 -251.1812673 282.83501727 -251.18689406 271.31995875 C-251.19054701 264.85741142 -251.20256278 258.39513344 -251.2349968 251.93266106 C-251.26508772 245.84969592 -251.27138521 239.76716295 -251.25961304 233.68413925 C-251.25939238 231.45492886 -251.2676906 229.22569835 -251.28526688 226.99655724 C-251.30801004 223.94530296 -251.29963881 220.89560894 -251.28378296 217.84434509 C-251.29766505 216.96892891 -251.31154713 216.09351273 -251.32584989 215.19156879 C-251.23031022 207.69356455 -248.797071 201.25225577 -243.71526563 195.65831226 C-236.7608407 188.97642787 -229.38369456 187.36844476 -220.046875 187.3840332 C-219.11911758 187.37384155 -218.19136017 187.3636499 -217.23548889 187.35314941 C-214.19469047 187.32315866 -211.15420779 187.31377476 -208.11328125 187.3046875 C-205.99478113 187.28783051 -203.87629096 187.2696789 -201.7578125 187.25028992 C-196.20126451 187.20289479 -190.64475683 187.17301754 -185.08807373 187.14685059 C-179.41019736 187.11699215 -173.73245973 187.07047996 -168.0546875 187.02539062 C-156.92845815 186.93947679 -145.80220016 186.87207849 -134.67578125 186.81640625 C-135.28595093 186.41391663 -135.89612061 186.011427 -136.52478027 185.59674072 C-137.32935669 185.06369324 -138.13393311 184.53064575 -138.96289062 183.98144531 C-139.7586853 183.45520569 -140.55447998 182.92896606 -141.37438965 182.38677979 C-166.22358238 165.43072823 -182.26059214 139.28080891 -188.2421875 110.04833984 C-193.73676634 79.89193257 -187.41084324 48.69571222 -170.55126953 23.10986328 C-162.09418937 10.89885682 -151.39477796 -0.43177919 -138.67578125 -8.18359375 C-137.61875 -8.8384375 -136.56171875 -9.49328125 -135.47265625 -10.16796875 C-92.41018875 -36.1867907 -38.77953139 -31.64636211 0 0 Z " fill="#55A6B5" transform="translate(250.67578125,39.18359375)"/>
<path d="M0 0 C16.7709598 14.63220598 31.04827999 33.56949765 35.32421875 55.81640625 C37.03351563 55.12804687 37.03351563 55.12804687 38.77734375 54.42578125 C68.96770932 42.57749902 101.00634877 40.44063958 131.44140625 53.0546875 C142.3758707 57.87152199 152.34003863 63.9226138 161.32421875 71.81640625 C162.12988281 72.47898437 162.93554688 73.1415625 163.765625 73.82421875 C184.72882964 91.60521549 197.4006491 117.87456133 201.32421875 144.81640625 C201.53305751 149.00109207 201.55217438 153.1827035 201.56445312 157.37231445 C201.57407439 159.34924444 201.60523319 161.32603171 201.63671875 163.30273438 C201.641875 164.58728516 201.64703125 165.87183594 201.65234375 167.1953125 C201.66168945 168.34588135 201.67103516 169.4964502 201.68066406 170.68188477 C201.18075973 176.4804326 199.63291385 182.14539413 198.32421875 187.81640625 C187.43421875 187.81640625 176.54421875 187.81640625 165.32421875 187.81640625 C167.32421875 175.81640625 167.32421875 175.81640625 168.32421875 170.81640625 C170.12263873 146.17681219 164.79714361 124.88785133 148.87890625 105.71484375 C136.20509911 91.33569253 116.87138623 79.89248975 97.35839844 78.62353516 C68.99439493 77.88929283 48.49505828 82.71354006 27.13671875 102.50390625 C10.80861691 119.61276972 4.52681646 141.30213611 5.01953125 164.4296875 C5.26813303 170.43543904 6.25280475 176.08696894 7.66796875 181.91796875 C8.32421875 184.81640625 8.32421875 184.81640625 8.32421875 188.81640625 C-20.71578125 188.81640625 -49.75578125 188.81640625 -79.67578125 188.81640625 C-79.34578125 195.08640625 -79.01578125 201.35640625 -78.67578125 207.81640625 C-78.63976009 212.8233475 -78.60846532 217.8125888 -78.67578125 222.81640625 C-79.23716105 222.81695102 -79.79854084 222.81749578 -80.37693214 222.81805706 C-94.04864667 222.83303685 -107.72003144 222.87584757 -121.39156532 222.94849682 C-128.00311446 222.98279071 -134.61443192 223.00788062 -141.22607422 223.01196289 C-147.6064438 223.01624054 -153.98629054 223.04466025 -160.36649704 223.08983803 C-162.80091685 223.10282988 -165.23539918 223.10711479 -167.6698494 223.10256004 C-171.07946514 223.09766642 -174.48754558 223.12369461 -177.89697266 223.15698242 C-178.90398224 223.14835678 -179.91099182 223.13973114 -180.94851685 223.13084412 C-185.46516554 223.20478692 -188.65244287 223.30322985 -192.23251343 226.23310852 C-195.24265985 229.40078532 -195.24265985 229.40078532 -198.11328125 232.69140625 C-206.65627665 242.68332378 -206.65627665 242.68332378 -211.74717712 245.53967285 C-214.08424294 247.50967988 -214.63264977 248.59709175 -215.23048592 251.63696289 C-215.43864542 255.42558597 -215.45282404 259.19078772 -215.40454102 262.98242188 C-215.40776131 264.4430162 -215.41358011 265.90360677 -215.42179871 267.36418152 C-215.43632537 271.32521823 -215.41340299 275.28523901 -215.38293958 279.24615288 C-215.35656224 283.39313449 -215.36187112 287.54008538 -215.36302185 291.68713379 C-215.36021328 298.65113291 -215.33418141 305.61473959 -215.29321289 312.57861328 C-215.2460374 320.62723814 -215.23021865 328.67543328 -215.23241955 336.72418642 C-215.23444696 345.29648108 -215.2136172 353.86861031 -215.18607974 362.44085503 C-215.17968953 364.90937302 -215.17755671 367.37786426 -215.17636299 369.84638977 C-215.17334616 373.72725929 -215.15500401 377.60776898 -215.12486458 381.48851967 C-215.11611288 382.91190194 -215.11240878 384.33532563 -215.11414719 385.75873375 C-215.11562317 387.70324923 -215.09676921 389.64774836 -215.07691956 391.59216309 C-215.07189202 392.67983727 -215.06686449 393.76751144 -215.06168461 394.88814545 C-214.47292227 399.35571388 -212.69232294 401.93517793 -209.328125 404.8515625 C-208.43222656 405.52058594 -207.53632813 406.18960937 -206.61328125 406.87890625 C-201.11813781 411.20642293 -197.03429295 415.92689121 -192.76953125 421.41015625 C-190.83414386 424.0458981 -190.83414386 424.0458981 -187.67578125 424.81640625 C-184.91656056 424.89241482 -182.18420235 424.90997301 -179.42576599 424.88041687 C-178.14852703 424.87300695 -178.14852703 424.87300695 -176.84548527 424.86544734 C-174.97504251 424.85403506 -173.10461289 424.84029858 -171.23420143 424.82457161 C-167.12442726 424.79010721 -163.01460871 424.76679084 -158.90476334 424.74258482 C-156.69018394 424.72939747 -154.47560804 424.71561092 -152.2610358 424.70127141 C-138.03142538 424.61057647 -123.80163899 424.59266409 -109.57178581 424.57034433 C-95.71999508 424.54804341 -81.86917892 424.50345139 -68.01782227 424.38793945 C-57.01609116 424.29632719 -46.0154352 424.25467509 -35.01331669 424.2708047 C-29.19574955 424.27751149 -23.38066232 424.25978824 -17.56356621 424.18155479 C-12.07705642 424.10838681 -6.59433739 424.10220135 -1.10754395 424.14479065 C0.89263141 424.14892069 2.89303289 424.12963245 4.89268303 424.08361244 C20.15299068 423.75287971 28.29149802 427.91579885 39.47833908 438.18923247 C43.54391123 441.77310227 48.21582022 444.49010746 52.82421875 447.31640625 C53.70851563 447.87070312 54.5928125 448.425 55.50390625 448.99609375 C60.78741568 452.29635038 66.12633594 455.49358991 71.50585938 458.63476562 C72.10591797 459.02470703 72.70597656 459.41464844 73.32421875 459.81640625 C73.32421875 460.14640625 73.32421875 460.47640625 73.32421875 460.81640625 C35.27622286 460.88509599 -2.77176368 460.93794703 -40.81980904 460.96960224 C-45.31330379 460.97335429 -49.80679841 460.97723726 -54.30029297 460.98120117 C-55.1948543 460.9819881 -56.08941562 460.98277503 -57.01108487 460.98358581 C-71.48936748 460.99663423 -85.9676143 461.02028497 -100.44587569 461.04786464 C-115.30558481 461.07593452 -130.16527521 461.09258586 -145.02500975 461.09867173 C-154.19180022 461.10278489 -163.35848952 461.1157688 -172.52524884 461.14015565 C-178.81407871 461.15603237 -185.10285639 461.16080222 -191.39170484 461.15691038 C-195.01824024 461.15499185 -198.64459903 461.15790088 -202.27110291 461.17402267 C-206.20882529 461.19139954 -210.14631946 461.18535192 -214.08407593 461.1771698 C-215.222232 461.18590832 -216.36038808 461.19464685 -217.53303373 461.20365018 C-227.90943511 461.14544935 -237.10153765 459.35698654 -244.67578125 451.81640625 C-249.70176823 445.21510992 -250.82507275 439.92724586 -250.8296814 431.67735291 C-250.83406365 430.73037759 -250.8384459 429.78340227 -250.84296095 428.80773073 C-250.85636282 425.62043505 -250.86253099 422.43316702 -250.86865234 419.24584961 C-250.87655231 416.96609369 -250.8848212 414.68633903 -250.89343262 412.40658569 C-250.91966822 404.90648597 -250.93496331 397.40638062 -250.94921875 389.90625 C-250.95457808 387.32508401 -250.95995559 384.74391806 -250.9653511 382.16275215 C-250.98698343 371.42512271 -251.00587096 360.68749653 -251.0169735 349.94985104 C-251.01990309 347.1635888 -251.02286476 344.3773266 -251.02587891 341.59106445 C-251.02662496 340.89857082 -251.02737101 340.20607719 -251.02813967 339.4925989 C-251.04078391 328.2832774 -251.07399455 317.07411487 -251.11568074 305.86486762 C-251.15815184 294.34988947 -251.1812673 282.83501727 -251.18689406 271.31995875 C-251.19054701 264.85741142 -251.20256278 258.39513344 -251.2349968 251.93266106 C-251.26508772 245.84969592 -251.27138521 239.76716295 -251.25961304 233.68413925 C-251.25939238 231.45492886 -251.2676906 229.22569835 -251.28526688 226.99655724 C-251.30801004 223.94530296 -251.29963881 220.89560894 -251.28378296 217.84434509 C-251.29766505 216.96892891 -251.31154713 216.09351273 -251.32584989 215.19156879 C-251.23031022 207.69356455 -248.797071 201.25225577 -243.71526563 195.65831226 C-236.7608407 188.97642787 -229.38369456 187.36844476 -220.046875 187.3840332 C-219.11911758 187.37384155 -218.19136017 187.3636499 -217.23548889 187.35314941 C-214.19469047 187.32315866 -211.15420779 187.31377476 -208.11328125 187.3046875 C-205.99478113 187.28783051 -203.87629096 187.2696789 -201.7578125 187.25028992 C-196.20126451 187.20289479 -190.64475683 187.17301754 -185.08807373 187.14685059 C-179.41019736 187.11699215 -173.73245973 187.07047996 -168.0546875 187.02539062 C-156.92845815 186.93947679 -145.80220016 186.87207849 -134.67578125 186.81640625 C-135.28595093 186.41391663 -135.89612061 186.011427 -136.52478027 185.59674072 C-137.32935669 185.06369324 -138.13393311 184.53064575 -138.96289062 183.98144531 C-139.7586853 183.45520569 -140.55447998 182.92896606 -141.37438965 182.38677979 C-166.22358238 165.43072823 -182.26059214 139.28080891 -188.2421875 110.04833984 C-193.73676634 79.89193257 -187.41084324 48.69571222 -170.55126953 23.10986328 C-162.09418937 10.89885682 -151.39477796 -0.43177919 -138.67578125 -8.18359375 C-137.61875 -8.8384375 -136.56171875 -9.49328125 -135.47265625 -10.16796875 C-92.41018875 -36.1867907 -38.77953139 -31.64636211 0 0 Z " fill="#526391" transform="translate(250.67578125,39.18359375)"/>
<path d="M0 0 C2.52059621 0.01866538 5.04122885 0.03289331 7.56187439 0.0428772 C13.50167082 0.07706316 19.43980425 0.15574182 25.37874836 0.25637209 C32.14519051 0.36851154 38.91172602 0.42321844 45.67886746 0.47332644 C59.58771968 0.57759125 73.49492949 0.7532512 87.40234375 0.9765625 C87.48536743 1.65993998 87.56839111 2.34331745 87.65393066 3.04740334 C88.03637575 6.18376104 88.42245885 9.31966093 88.80859375 12.45556641 C89.00437012 14.0678286 89.00437012 14.0678286 89.20410156 15.71266174 C90.23163644 24.02590251 91.62002553 32.16403816 93.40234375 40.3515625 C93.64984375 41.54265625 93.89734375 42.73375 94.15234375 43.9609375 C95.44685859 50.0694294 96.91411004 56.03730265 98.8515625 61.97509766 C99.40234375 63.9765625 99.40234375 63.9765625 99.40234375 66.9765625 C102.34682855 64.32744922 104.29881923 61.21223777 106.46484375 57.9140625 C118.604495 40.09101669 135.57704549 29.7588533 156.27734375 24.6015625 C177.15434073 21.23882473 198.42741419 26.08020535 215.67944336 38.33789062 C229.42420028 48.52072514 238.84602799 61.85235206 244.40234375 77.9765625 C244.72074219 78.84796875 245.03914063 79.719375 245.3671875 80.6171875 C249.50439349 93.96301327 249.09437315 110.86149237 244.40234375 123.9765625 C243.87447266 125.56984375 243.87447266 125.56984375 243.3359375 127.1953125 C236.54540695 146.37912157 223.34422203 161.09057119 205.44921875 170.53515625 C202.7873064 171.78803958 200.15400113 172.9351894 197.40234375 173.9765625 C196.7791626 174.22027588 196.15598145 174.46398926 195.51391602 174.71508789 C189.06574672 177.07588506 182.64095892 177.91384907 175.83984375 178.6640625 C174.73576172 178.79361328 173.63167969 178.92316406 172.49414062 179.05664062 C169.79773806 179.37180456 167.10065272 179.67824252 164.40234375 179.9765625 C169.15405444 185.44322966 173.90316468 190.67275767 179.48046875 195.30859375 C181.90832871 197.41569986 184.13739769 199.6965137 186.40234375 201.9765625 C158.91662747 202.21022712 131.43106017 202.3865372 103.94455051 202.49468422 C91.18185271 202.54623502 78.41977224 202.61650877 65.6574707 202.73095703 C54.5330185 202.83066998 43.40901338 202.89515425 32.2841267 202.91744745 C26.39400471 202.93047811 20.50516169 202.9610708 14.61544991 203.03386307 C9.06896438 203.10185647 3.52428161 203.12265579 -2.0225811 203.10763931 C-4.05556037 203.11038537 -6.0886013 203.13021218 -8.12121964 203.16861725 C-23.44583021 203.44390833 -23.44583021 203.44390833 -28.71653938 199.84977341 C-31.02060473 197.33512654 -32.80002927 194.86704326 -34.59765625 191.9765625 C-38.27779548 187.15081467 -42.45505794 183.77200967 -47.234375 180.0625 C-50.07247576 177.55746561 -50.52952845 176.05457676 -50.76539707 172.32233047 C-50.79518603 170.70753611 -50.79518603 170.70753611 -50.82557678 169.06011963 C-50.85007401 167.82396408 -50.87457123 166.58780853 -50.89981079 165.31419373 C-50.92179054 163.94156235 -50.94354186 162.56892731 -50.96508789 161.19628906 C-50.99099862 159.75221915 -51.01711137 158.30815285 -51.04341125 156.86408997 C-51.27469478 143.65236403 -51.40494237 130.43906345 -51.50878239 117.22578812 C-51.58011603 108.35022558 -51.68149171 99.47714721 -51.85961914 90.60302734 C-52.01517758 82.85255135 -52.11337851 75.10380437 -52.1437425 67.35178924 C-52.16163332 63.25417343 -52.2065278 59.16118893 -52.31990242 55.06501007 C-53.03175919 28.2250492 -53.03175919 28.2250492 -47.24337769 20.89489746 C-43.97673089 17.5426305 -40.35510775 14.93690668 -36.4560051 12.37097549 C-33.82245705 10.39489139 -32.41137013 7.8786539 -30.69750977 5.10009766 C-23.65860751 -2.87409821 -9.64095466 -0.20930445 0 0 Z " fill="#77C4BE" transform="translate(85.59765625,262.0234375)"/>
<path d="M0 0 C35.16895804 -0.13732809 70.33786184 -0.24305532 105.50703156 -0.30639198 C109.65890364 -0.31389623 113.81077519 -0.32166216 117.96264648 -0.32958984 C119.20249266 -0.33195064 119.20249266 -0.33195064 120.46738624 -0.33435912 C133.85168241 -0.36046825 147.23582399 -0.40777635 160.62002844 -0.46291678 C174.3530933 -0.51902265 188.08607719 -0.55235199 201.81925195 -0.56453097 C210.29369908 -0.57276445 218.76770923 -0.59877004 227.24202185 -0.6474988 C233.05290398 -0.67921065 238.86356015 -0.68880155 244.67452253 -0.68100826 C248.02767572 -0.67716422 251.37944965 -0.68633865 254.73257256 -0.71523285 C258.36973548 -0.74504136 262.00502175 -0.73792487 265.64222717 -0.7215271 C266.69962996 -0.73900415 267.75703275 -0.7564812 268.84647804 -0.77448785 C274.95806057 -0.69989865 278.32377475 0.14212807 282.69638532 4.52594602 C283.12657817 5.01238383 283.55677101 5.49882165 284 6 C284.58007812 6.63164062 285.16015625 7.26328125 285.7578125 7.9140625 C286.75286301 9.15929714 287.74367352 10.40792349 288.73193359 11.65855408 C290.95924 14.16512469 290.95924 14.16512469 294.17382812 15.87135315 C298.49045705 18.54439966 301.67346698 21.42683055 304 26 C306.34294906 36.07119862 305.62540489 46.85957824 305.41691589 57.13950419 C305.34630011 61.26759574 305.34795322 65.39570702 305.34082031 69.52430725 C305.31879619 76.4471797 305.24903045 83.36816981 305.14550781 90.2902832 C304.99973839 100.04843966 304.94716828 109.80555659 304.90988541 119.56463802 C304.88025591 126.33797024 304.82694576 133.11114802 304.77014923 139.88429952 C304.75670173 141.52311787 304.74408452 143.16194324 304.73229218 144.80077434 C304.69838005 149.46760004 304.64989086 154.13377775 304.57713699 158.80016708 C304.55721451 160.2122274 304.54223 161.62436742 304.5325737 163.03653526 C304.51833409 164.96546269 304.48378439 166.8942082 304.44824219 168.82286072 C304.42706329 170.44073439 304.42706329 170.44073439 304.40545654 172.09129238 C303.53202238 178.35722805 299.54153573 181.46409494 294.8125 185.1875 C289.0223844 189.89297921 284.41983961 194.96617401 280 201 C278.08864343 202.91135657 274.64444458 202.16006882 272.11354065 202.18081665 C271.38470246 202.18802117 270.65586427 202.19522568 269.90494007 202.20264852 C267.44388529 202.22550799 264.98284075 202.24098494 262.52172852 202.25634766 C260.76442716 202.27078879 259.00712838 202.28554631 257.24983215 202.30059814 C241.17650956 202.43110601 225.10248156 202.49678316 209.02873325 202.54844093 C197.1466308 202.58732115 185.26547865 202.65560234 173.38379341 202.76298869 C165.03125988 202.83592856 156.67898558 202.8742901 148.32614654 202.88746679 C143.33759055 202.89632167 138.35020776 202.92048827 133.36200142 202.98213577 C128.66252388 203.03955032 123.9648192 203.05400819 119.26504326 203.03626251 C117.54533837 203.03713813 115.8255588 203.0532911 114.10617065 203.08630753 C99.52957515 203.35155152 99.52957515 203.35155152 93.08848572 197.60214233 C91.6970405 196.09400325 90.32966913 194.56287661 89 193 C88.00021458 192.08726456 86.98397687 191.19166617 85.94140625 190.328125 C85.15636719 189.64234375 84.37132812 188.9565625 83.5625 188.25 C82.75941406 187.55390625 81.95632812 186.8578125 81.12890625 186.140625 C78.9261664 183.92575997 77.48723946 181.73537289 76 179 C76.67353516 178.94054199 77.34707031 178.88108398 78.04101562 178.81982422 C103.76452558 176.43947897 125.91939925 170.02932156 143.09765625 149.4921875 C156.42555384 131.27251211 161.40279585 110.0276754 158.73193359 87.765625 C156.24395278 73.46413414 148.70589885 59.63877665 139 49 C138.48308594 48.3915625 137.96617187 47.783125 137.43359375 47.15625 C125.35162593 33.83277672 105.66022878 25.72202765 87.953125 24.75 C66.27604883 23.96135746 47.16373044 31.21183195 30.53125 45.0546875 C25.12731109 50.09709528 21.17218853 55.89233332 17.27270508 62.12353516 C16.2279938 63.77908854 15.11935313 65.3939716 14 67 C13.34 67 12.68 67 12 67 C8.25220024 55.98876529 5.85701495 44.79528564 3.75 33.375 C3.61962341 32.66964111 3.48924683 31.96428223 3.35491943 31.23754883 C2.54434878 26.82937515 1.74666179 22.41951483 1 18 C0.71431152 16.38859131 0.71431152 16.38859131 0.42285156 14.74462891 C0.05892908 11.52185576 -0.04266543 8.50130803 -0.02642822 5.26596069 C-0.02261265 4.27881262 -0.01879707 3.29166454 -0.01486588 2.27460289 C-0.00996014 1.52398394 -0.0050544 0.77336498 0 0 Z " fill="#85DAD4" transform="translate(173,262)"/>
<path d="M0 0 C0.97872086 -0.00256327 1.95744172 -0.00512655 2.96582079 -0.0077675 C6.23019154 -0.01269071 9.49409504 0.00376366 12.75842285 0.02018738 C15.10440052 0.02103396 17.45037899 0.02055789 19.7963562 0.01885986 C26.15525363 0.01799973 32.51398103 0.03562876 38.87283897 0.05658174 C44.84797273 0.07344344 50.82310678 0.07645267 56.79825979 0.07953735 C68.62908834 0.08609469 80.45985464 0.10603632 92.29064941 0.13444519 C103.77957855 0.16200437 115.26849075 0.18322884 126.75744629 0.19596863 C127.82065103 0.19715088 127.82065103 0.19715088 128.90533465 0.19835702 C132.46137843 0.20227228 136.01742232 0.20606337 139.5734663 0.20979273 C169.04987214 0.24086628 198.52621714 0.29390632 228.00256348 0.36076355 C228.00256348 0.69076355 228.00256348 1.02076355 228.00256348 1.36076355 C198.96256348 1.36076355 169.92256348 1.36076355 140.00256348 1.36076355 C140.33256348 7.63076355 140.66256348 13.90076355 141.00256348 20.36076355 C141.03858464 25.3677048 141.06987941 30.3569461 141.00256348 35.36076355 C140.16049378 35.3615807 140.16049378 35.3615807 139.30141258 35.36241436 C125.62969806 35.37739415 111.95831329 35.42020487 98.2867794 35.49285412 C91.67523027 35.52714801 85.0639128 35.55223792 78.45227051 35.55632019 C72.07190093 35.56059784 65.69205419 35.58901755 59.31184769 35.63419533 C56.87742787 35.64718718 54.44294555 35.65147208 52.00849533 35.64691734 C48.59887959 35.64202372 45.19079915 35.6680519 41.78137207 35.70133972 C40.77436249 35.69271408 39.76735291 35.68408844 38.72982788 35.67520142 C34.21317919 35.74914422 31.02590185 35.84758715 27.4458313 38.77746582 C24.43568488 41.94514261 24.43568488 41.94514261 21.56506348 45.23576355 C13.02206808 55.22768108 13.02206808 55.22768108 7.9311676 58.08403015 C5.59410179 60.05403718 5.04569495 61.14144905 4.44785881 64.18132019 C4.23969931 67.96994327 4.22552069 71.73514502 4.27380371 75.52677917 C4.27058341 76.9873735 4.26476462 78.44796406 4.25654602 79.90853882 C4.24201936 83.86957553 4.26494174 87.82959631 4.29540515 91.79051018 C4.32178249 95.93749179 4.31647361 100.08444268 4.31532288 104.23149109 C4.31813144 111.19549021 4.34416332 118.15909689 4.38513184 125.12297058 C4.43230733 133.17159544 4.44812608 141.21979058 4.44592518 149.26854372 C4.44389776 157.84083838 4.46472753 166.41296761 4.49226499 174.98521233 C4.4986552 177.45373032 4.50078801 179.92222156 4.50198174 182.39074707 C4.50499856 186.27161659 4.52334072 190.15212628 4.55348015 194.03287697 C4.56223185 195.45625924 4.56593595 196.87968293 4.56419754 198.30309105 C4.56272156 200.24760653 4.58157552 202.19210566 4.60142517 204.13652039 C4.6064527 205.22419456 4.61148024 206.31186874 4.61666012 207.43250275 C5.20542245 211.90007118 6.98602178 214.47953523 10.35021973 217.3959198 C11.24611816 218.06494324 12.1420166 218.73396667 13.06506348 219.42326355 C18.56020692 223.75078023 22.64405178 228.47124851 26.90881348 233.95451355 C28.84420087 236.5902554 28.84420087 236.5902554 32.00256348 237.36076355 C34.76178417 237.43677212 37.49414237 237.45433031 40.25257874 237.42477417 C41.52981769 237.41736425 41.52981769 237.41736425 42.83285946 237.40980464 C44.70330221 237.39839236 46.57373184 237.38465588 48.4441433 237.36892891 C52.55391747 237.33446451 56.66373601 237.31114814 60.77358139 237.28694212 C62.98816079 237.27375477 65.20273669 237.25996822 67.41730893 237.24562871 C81.64691935 237.15493377 95.87670574 237.13702139 110.10655892 237.11470163 C123.95834965 237.09240071 137.8091658 237.04780869 151.66052246 236.93229675 C162.66225357 236.84068449 173.66290953 236.79903239 184.66502804 236.815162 C190.48259518 236.82186879 196.2976824 236.80414554 202.11477852 236.72591209 C207.60128831 236.65274411 213.08400733 236.64655865 218.57080078 236.68914795 C220.57097613 236.69327799 222.57137762 236.67398975 224.57102776 236.62796974 C239.8313354 236.29723701 247.96984275 240.46015615 259.1566838 250.73358977 C263.22225596 254.31745957 267.89416495 257.03446476 272.50256348 259.86076355 C273.38686035 260.41506042 274.27115723 260.9693573 275.18225098 261.54045105 C280.46576041 264.84070767 285.80468066 268.03794721 291.1842041 271.17912292 C291.7842627 271.56906433 292.38432129 271.95900574 293.00256348 272.36076355 C293.00256348 272.69076355 293.00256348 273.02076355 293.00256348 273.36076355 C254.95456759 273.42945329 216.90658105 273.48230433 178.85853568 273.51395954 C174.36504094 273.51771159 169.87154632 273.52159456 165.37805176 273.52555847 C164.48349043 273.5263454 163.5889291 273.52713233 162.66725986 273.52794311 C148.18897725 273.54099153 133.71073043 273.56464227 119.23246904 273.59222194 C104.37275992 273.62029182 89.51306952 273.63694316 74.65333498 273.64302903 C65.4865445 273.64714219 56.31985521 273.6601261 47.15309589 273.68451295 C40.86426602 273.70038967 34.57548833 273.70515952 28.28663988 273.70126768 C24.66010448 273.69934915 21.0337457 273.70225818 17.40724182 273.71837997 C13.46951944 273.73575684 9.53202527 273.72970922 5.5942688 273.7215271 C4.45611272 273.73026562 3.31795665 273.73900415 2.145311 273.74800748 C-8.23109038 273.68980665 -17.42319292 271.90134384 -24.99743652 264.36076355 C-30.0234235 257.75946722 -31.14672803 252.47160315 -31.15133667 244.22171021 C-31.15571892 243.27473489 -31.16010118 242.32775957 -31.16461623 241.35208803 C-31.17801809 238.16479235 -31.18418626 234.97752432 -31.19030762 231.79020691 C-31.19820758 229.51045099 -31.20647647 227.23069633 -31.21508789 224.95094299 C-31.2413235 217.45084327 -31.25661859 209.95073792 -31.27087402 202.4506073 C-31.27623336 199.86944131 -31.28161086 197.28827536 -31.28700638 194.70710945 C-31.3086387 183.96948001 -31.32752623 173.23185383 -31.33862877 162.49420834 C-31.34155836 159.7079461 -31.34452004 156.9216839 -31.34753418 154.13542175 C-31.34828023 153.44292812 -31.34902628 152.75043449 -31.34979494 152.0369562 C-31.36243919 140.8276347 -31.39564982 129.61847217 -31.43733601 118.40922492 C-31.47980711 106.89424677 -31.50292257 95.37937457 -31.50854933 83.86431605 C-31.51220229 77.40176872 -31.52421805 70.93949074 -31.55665207 64.47701836 C-31.58674299 58.39405322 -31.59304048 52.31152025 -31.58126831 46.22849655 C-31.58104766 43.99928616 -31.58934588 41.77005565 -31.60692215 39.54091454 C-31.62966532 36.48966026 -31.62129408 33.43996624 -31.60543823 30.38870239 C-31.61932032 29.51328621 -31.63320241 28.63787003 -31.64750516 27.73592609 C-31.55196549 20.23792185 -29.11872628 13.79661307 -24.03692091 8.20266956 C-16.94049352 1.38434773 -9.50866499 -0.09204359 0 0 Z " fill="#4C94A3" transform="translate(30.9974365234375,226.6392364501953)"/>
<path d="M0 0 C1.76984253 0.00966797 1.76984253 0.00966797 3.57543945 0.01953125 C13.18504705 0.22001994 20.88708966 1.59605857 29.6875 5.5 C30.36345215 5.79471191 31.0394043 6.08942383 31.73583984 6.39306641 C40.64690171 10.34053749 48.45440814 14.88276923 55.6875 21.5 C56.69296875 22.36818359 56.69296875 22.36818359 57.71875 23.25390625 C70.18647648 34.70739308 79.25951973 51.77391369 81.6875 68.5 C81.75725156 71.42956566 81.38195637 72.7622689 79.37109375 74.8984375 C78.17855511 76.03287101 76.9829284 77.16406235 75.78515625 78.29296875 C71.45021108 82.85394458 68.12711007 88.25238977 64.6875 93.5 C64.12804687 94.33660156 63.56859375 95.17320312 62.9921875 96.03515625 C56.4508434 106.29239478 52.72854376 117.45244454 49.875 129.1875 C49.65497314 130.08984375 49.43494629 130.9921875 49.20825195 131.921875 C48.07327821 136.87382762 47.59926679 141.20782626 47.8125 146.3125 C47.6875 149.05078125 47.6875 149.05078125 46.6875 151.5 C42.07364681 155.12259567 37.10670177 157.33450942 31.6875 159.5 C30.66785156 159.93054688 29.64820313 160.36109375 28.59765625 160.8046875 C19.44129349 164.40417587 10.31111623 165.87689551 0.5 165.8125 C-0.41273682 165.80686035 -1.32547363 165.8012207 -2.26586914 165.79541016 C-25.5477872 165.38254496 -45.70633037 155.58322155 -61.92822266 139.00927734 C-77.09404186 122.47398734 -84.66124447 99.5260207 -83.734375 77.30078125 C-82.09271042 54.2667515 -70.60642007 34.79078292 -53.9375 19.3125 C-38.47358935 6.01943296 -20.27683877 -0.11709717 0 0 Z " fill="#B1D3F6" transform="translate(176.3125,44.5)"/>
<path d="M0 0 C11.33658843 9.61498617 19.17442667 21.99637544 24 36 C24.31839844 36.87140625 24.63679687 37.7428125 24.96484375 38.640625 C29.10204974 51.98645077 28.6920294 68.88492987 24 82 C23.64808594 83.0621875 23.29617188 84.124375 22.93359375 85.21875 C16.1430632 104.40255907 2.94187828 119.11400869 -14.953125 128.55859375 C-32.18395055 136.66863315 -53.26652773 139.35157669 -71.859375 134.16796875 C-93.82514636 125.99910602 -110.38324179 112.40807716 -120.6484375 91.1640625 C-128.4509259 72.89812145 -130.25908708 51.73904783 -123 33 C-118.9570043 23.32902356 -114.11292802 14.77361501 -107 7 C-106.40960938 6.31808594 -105.81921875 5.63617188 -105.2109375 4.93359375 C-77.35682117 -25.35034975 -30.91811069 -24.29836407 0 0 Z " fill="#55A6B5" transform="translate(306,304)"/>
<path d="M0 0 C1.18078125 -0.01160156 2.3615625 -0.02320312 3.578125 -0.03515625 C24.8817313 0.03523011 44.79899138 9.21798976 59.890625 24.08203125 C76.13844068 40.85574725 83.46705055 61.53566579 83.43310547 84.68432617 C82.97297731 105.40202269 82.97297731 105.40202269 78 110.375 C76.31198015 110.46853163 74.62004793 110.49244791 72.92944336 110.48852539 C71.84839828 110.48844986 70.76735321 110.48837433 69.65354919 110.48829651 C67.889515 110.48055458 67.889515 110.48055458 66.08984375 110.47265625 C64.89267227 110.4712413 63.69550079 110.46982635 62.46205139 110.46836853 C58.62050934 110.46274979 54.77902457 110.45019411 50.9375 110.4375 C48.34049563 110.43248741 45.74349035 110.42792409 43.14648438 110.42382812 C36.76430321 110.41277427 30.3821557 110.39601792 24 110.375 C24.31791 109.55993736 24.31791 109.55993736 24.64224243 108.72840881 C24.91708466 108.01245041 25.19192688 107.296492 25.47509766 106.55883789 C25.88582016 105.49627525 25.88582016 105.49627525 26.30484009 104.4122467 C28.12492888 99.07826551 27.81538267 92.75327512 25.8125 87.5 C22.45186286 81.70579803 18.4501827 78.25655376 12 76.375 C7.74586737 75.9210851 3.48097327 75.98589189 -0.79296875 76.0234375 C-5.34994977 75.94095821 -7.36728995 75.86336555 -11.08203125 72.99609375 C-13 70.375 -13 70.375 -13.5625 67.8125 C-12.79883959 64.50330491 -11.68359995 63.45183555 -9 61.375 C-6.36489901 60.96849078 -4.13020942 60.79351449 -1.49609375 60.80078125 C-0.41655174 60.77953438 -0.41655174 60.77953438 0.68479919 60.75785828 C2.97751894 60.71603116 5.26945285 60.70073513 7.5625 60.6875 C9.85875142 60.65840918 12.1548057 60.62383087 14.45091248 60.58500671 C15.87763045 60.56258696 17.30447009 60.54672645 18.7313385 60.53816223 C21.76194316 60.50524009 24.10028639 60.3415712 27 59.375 C27.08131463 57.93844146 27.13933559 56.5005517 27.1875 55.0625 C27.22230469 54.26199219 27.25710938 53.46148437 27.29296875 52.63671875 C27.14543022 50.37187719 27.14543022 50.37187719 26 48.625 C22.83689474 46.64805921 19.44043151 46.79839747 15.8125 46.6875 C15.06291016 46.65333984 14.31332031 46.61917969 13.54101562 46.58398438 C11.69453162 46.50165706 9.84729006 46.43664719 8 46.375 C7.93941406 45.47136719 7.87882812 44.56773437 7.81640625 43.63671875 C7.73261719 42.45722656 7.64882813 41.27773437 7.5625 40.0625 C7.48128906 38.89074219 7.40007812 37.71898437 7.31640625 36.51171875 C7.1132629 33.34909042 7.1132629 33.34909042 6 30.375 C4.56344146 30.29368537 3.1255517 30.23566441 1.6875 30.1875 C0.88699219 30.15269531 0.08648437 30.11789063 -0.73828125 30.08203125 C-3.0187713 30.21772974 -3.0187713 30.21772974 -4.75 31.46875 C-6.58774585 34.27131242 -6.52327432 36.74514118 -6.6875 40.0625 C-6.75324219 41.24199219 -6.81898438 42.42148438 -6.88671875 43.63671875 C-6.92410156 44.54035156 -6.96148437 45.44398438 -7 46.375 C-7.71285156 46.5709375 -8.42570312 46.766875 -9.16015625 46.96875 C-17.56639556 49.59357843 -21.99102394 53.2728232 -26.4375 60.8125 C-28.0650936 68.22709308 -27.10009803 73.54803689 -23.41796875 80.2109375 C-20.19658927 85.12731279 -15.53674825 87.68346508 -10 89.375 C-5.68969734 89.89148028 -1.36731526 89.8587339 2.96875 89.90234375 C3.82984375 89.92425781 4.6909375 89.94617188 5.578125 89.96875 C6.35575195 89.97583984 7.13337891 89.98292969 7.93457031 89.99023438 C10.55058407 90.47756743 11.42746889 91.25300082 13 93.375 C13.5 96.875 13.5 96.875 13 100.375 C9.0797898 103.56192026 5.81692735 103.74321808 0.87109375 103.74609375 C-0.50716406 103.76346679 -1.88541922 103.78105126 -3.26367188 103.79882812 C-5.41858663 103.80891506 -7.57333404 103.81249145 -9.72827148 103.81079102 C-11.82065016 103.81436366 -13.91175478 103.84169941 -16.00390625 103.87109375 C-17.87284546 103.87387329 -17.87284546 103.87387329 -19.77954102 103.87670898 C-23.55945606 104.46156279 -24.68919423 105.39841003 -27 108.375 C-27.33 109.035 -27.66 109.695 -28 110.375 C-44.17 110.375 -60.34 110.375 -77 110.375 C-84.33437503 93.26145826 -84.69686455 71.88543561 -78 54.375 C-68.99287409 32.49683677 -53.68913567 14.99776204 -31.8125 5.4375 C-21.13304344 1.50560879 -11.3832521 -0.11184418 0 0 Z " fill="#B7DAFE" transform="translate(337,116.625)"/>
<path d="M0 0 C-2.47739624 2.49963499 -4.96676803 4.96906517 -7.54296875 7.3671875 C-18.64179331 17.89221758 -27.13533947 30.40601842 -32 45 C-34.1875 46.7265625 -34.1875 46.7265625 -37 48.625 C-54.92462675 61.40845474 -65.65191452 80.16635054 -69.66601562 101.75927734 C-73.06305107 124.55020668 -65.99124749 146.14164815 -53.1875 164.875 C-40.47895339 181.32714949 -21.6200756 192.39586635 -1.0859375 195.6640625 C5.59387708 196.39123219 12.28918165 196.67788072 19 197 C19 202.61 19 208.22 19 214 C10.6363959 214.22740495 2.27525829 214.41020489 -6.09062386 214.51812172 C-9.9768008 214.56996015 -13.86072503 214.64006063 -17.74560547 214.75439453 C-48.92611116 215.6480418 -48.92611116 215.6480418 -58.52416992 206.67822266 C-59.34119385 205.79440918 -60.15821777 204.9105957 -61 204 C-62.06698265 203.05807438 -63.14718254 202.13092799 -64.23950195 201.21850586 C-86.19020864 182.83808389 -99.83519109 155.28116627 -103 127 C-105.3916648 95.37972777 -97.15937476 64.03457775 -76.42431641 39.61914062 C-69.13609089 31.33399979 -61.46453716 23.76832738 -52 18 C-50.94296875 17.34515625 -49.8859375 16.6903125 -48.796875 16.015625 C-34.80179222 7.55964029 -16.80266471 -0.86337803 0 0 Z " fill="#526391" transform="translate(164,13)"/>
<path d="M0 0 C1.01263916 -0.00821777 2.02527832 -0.01643555 3.06860352 -0.02490234 C4.68980103 0.00289307 4.68980103 0.00289307 6.34375 0.03125 C7.45999756 0.04333496 8.57624512 0.05541992 9.72631836 0.06787109 C36.30700509 0.69294247 61.78390009 9.90601435 81.84375 27.53125 C82.64941406 28.19382812 83.45507812 28.85640625 84.28515625 29.5390625 C105.24836089 47.32005924 117.92018035 73.58940508 121.84375 100.53125 C122.05258876 104.71593582 122.07170563 108.89754725 122.08398438 113.0871582 C122.09360564 115.06408819 122.12476444 117.04087546 122.15625 119.01757812 C122.16398437 120.9444043 122.16398437 120.9444043 122.171875 122.91015625 C122.1812207 124.0607251 122.19056641 125.21129395 122.20019531 126.39672852 C121.70029098 132.19527635 120.1524451 137.86023788 118.84375 143.53125 C107.95375 143.53125 97.06375 143.53125 85.84375 143.53125 C87.84375 131.53125 87.84375 131.53125 88.84375 126.53125 C90.64216998 101.89165594 85.31667486 80.60269508 69.3984375 61.4296875 C56.72463036 47.05053628 37.39091748 35.6073335 17.87792969 34.33837891 C-2.60098834 33.80825316 -19.20442999 35.2881527 -37.15625 45.53125 C-32.70188635 29.10578405 -21.14224571 16.1117045 -9.15625 4.53125 C-8.55973633 3.8407959 -7.96322266 3.1503418 -7.34863281 2.43896484 C-4.68601859 0.12207537 -3.48254977 0.01747516 0 0 Z " fill="#5B6EA2" transform="translate(330.15625,83.46875)"/>
<path d="M0 0 C20.6706796 15.91942696 34.87279416 36.21978307 41.95703125 61.27734375 C41.42859619 61.59896484 40.90016113 61.92058594 40.35571289 62.25195312 C26.34013927 70.68316979 26.34013927 70.68316979 13.95703125 81.27734375 C11.72577946 77.93046607 11.17383342 75.37257483 10.26953125 71.46484375 C5.0414473 50.73122435 -8.15420802 33.42474853 -26.3203125 22.38671875 C-39.55504643 14.68524841 -53.00236028 10.70433676 -68.29296875 10.83984375 C-70.07586304 10.85011597 -70.07586304 10.85011597 -71.89477539 10.8605957 C-80.86897373 11.02427566 -88.6089047 12.04705567 -97.04296875 15.27734375 C-98.1721875 15.70917969 -99.30140625 16.14101563 -100.46484375 16.5859375 C-104.74922616 18.3130151 -108.92886734 20.176936 -113.04296875 22.27734375 C-108.28052382 5.4687146 -95.78729719 -12.07986545 -81.04296875 -21.72265625 C-56.14710442 -30.97122788 -19.78620906 -14.2724196 0 0 Z " fill="#5B6EA2" transform="translate(245.04296875,34.72265625)"/>
<path d="M0 0 C8.5256797 5.04894075 14.89743527 12.65294511 18.30078125 21.97265625 C20.85786506 33.04382918 19.86533808 44.15992774 14 54 C9.59994539 60.57774662 3.98079087 64.43746603 -3 68 C-3.95326172 68.51240234 -3.95326172 68.51240234 -4.92578125 69.03515625 C-12.11602004 72.34543749 -20.73836083 72.15110302 -28.25390625 70.12109375 C-39.81387388 65.64769632 -47.33647118 58.93843025 -53.03125 48.0234375 C-56.3471481 40.07142262 -56.34698772 29.48688219 -54.30859375 21.18359375 C-53.37731965 18.94308076 -52.33442055 17.02435316 -51 15 C-50.55269531 14.30648438 -50.10539062 13.61296875 -49.64453125 12.8984375 C-37.7350296 -4.15162652 -18.91559305 -8.31697282 0 0 Z " fill="#4C95A3" transform="translate(129,330)"/>
<path d="M0 0 C8.11650877 5.75562314 13.48337123 13.24308244 16.6171875 22.64453125 C17.49504909 35.99954035 16.53398111 46.99234099 7.59375 57.64453125 C0.84911654 64.4691406 -8.65767517 69.77602233 -18.3828125 70.01953125 C-30.17740527 69.44733661 -39.81161942 66.02525338 -48.3828125 57.64453125 C-56.71938617 46.9990536 -58.77511793 36.91740518 -57.3828125 23.64453125 C-55.25899831 13.9103829 -48.65983331 5.52003502 -40.53125 -0.0703125 C-27.71767404 -7.73516067 -13.05269833 -7.42505954 0 0 Z " fill="#55A6B5" transform="translate(421.3828125,331.35546875)"/>
<path d="M0 0 C2.30275556 1.8670991 3.67823871 3.35647741 5 6 C5.07033769 7.87379605 5.0843022 9.75001102 5.0625 11.625 C5.05347656 12.62789062 5.04445312 13.63078125 5.03515625 14.6640625 C5.02355469 15.43492188 5.01195312 16.20578125 5 17 C5.95261719 16.96519531 6.90523437 16.93039063 7.88671875 16.89453125 C9.14097656 16.86746094 10.39523438 16.84039062 11.6875 16.8125 C12.92886719 16.77769531 14.17023438 16.74289063 15.44921875 16.70703125 C19.21666932 17.01787701 21.02794917 17.7227143 24 20 C25.42041821 22.84083641 25.31452272 24.85477278 25 28 C23.43359375 30.16381836 23.43359375 30.16381836 21 32 C17.671875 32.49829102 17.671875 32.49829102 13.75 32.50390625 C12.70730957 32.5180381 12.70730957 32.5180381 11.64355469 32.53245544 C9.42873483 32.56106374 7.21498953 32.56418532 5 32.5625 C2.78516772 32.56611114 0.57111508 32.57567541 -1.64355469 32.60325623 C-3.65286727 32.62772347 -5.66241377 32.6299777 -7.671875 32.63110352 C-11.1662643 33.01842909 -12.6035644 33.46642346 -15 36 C-15.45758807 39.13774675 -15.69930986 41.06102121 -13.76049805 43.66430664 C-11.50387394 45.37641183 -10.20768808 45.36858524 -7.39453125 45.37109375 C-6.49283203 45.38849609 -5.59113281 45.40589844 -4.66210938 45.42382812 C-2.78191547 45.43284893 -0.90169946 45.43813737 0.97851562 45.43945312 C8.19482754 45.58797906 13.49184796 46.97269506 19.0234375 51.74609375 C23.65285933 57.53956095 25.49876276 61.85773102 25.30859375 69.375 C24.58870669 75.49859623 22.16728984 80.27793082 17.625 84.4375 C13.27768379 87.79805921 9.50929961 89 4 89 C4.04640625 89.96421875 4.0928125 90.9284375 4.140625 91.921875 C4.19476563 93.81679687 4.19476563 93.81679687 4.25 95.75 C4.29640625 97.00296875 4.3428125 98.2559375 4.390625 99.546875 C4 103 4 103 2.171875 105.421875 C0 107 0 107 -3 107.5 C-6.75884259 106.87352624 -7.71867209 106.02227202 -10 103 C-10.390625 99.546875 -10.390625 99.546875 -10.25 95.75 C-10.21390625 94.48671875 -10.1778125 93.2234375 -10.140625 91.921875 C-10.09421875 90.95765625 -10.0478125 89.9934375 -10 89 C-11.18078125 89.04640625 -12.3615625 89.0928125 -13.578125 89.140625 C-15.13539134 89.17814949 -16.69268508 89.21454893 -18.25 89.25 C-19.02730469 89.28351563 -19.80460938 89.31703125 -20.60546875 89.3515625 C-26.37081687 89.45011546 -26.37081687 89.45011546 -29.51171875 87.203125 C-31.70918455 83.9501835 -31.615332 81.82873246 -31 78 C-28.22640139 75.07456205 -26.55999225 74.080705 -22.54248047 73.50170898 C-20.59946045 73.49892944 -20.59946045 73.49892944 -18.6171875 73.49609375 C-17.57306198 73.4819619 -17.57306198 73.4819619 -16.50784302 73.46754456 C-14.29659187 73.43899557 -12.08642019 73.43581336 -9.875 73.4375 C-7.65659751 73.43389167 -5.43897311 73.42438185 -3.22073364 73.39674377 C-1.21352701 73.37226849 0.79391399 73.3700221 2.80126953 73.36889648 C5.94128455 73.25163966 5.94128455 73.25163966 7.95654297 71.70336914 C9.33321439 69.81660799 9.33321439 69.81660799 8.8125 66.375 C8.544375 65.26125 8.27625 64.1475 8 63 C5.69312888 61.84656444 4.34650645 61.8756108 1.78125 61.859375 C-17.6564888 61.50373884 -17.6564888 61.50373884 -24 56 C-29.42943191 49.59259588 -31.39040898 44.13280248 -31.26953125 35.78125 C-30.58910523 28.7600424 -26.19570206 24.78491286 -20.9609375 20.4453125 C-17.6193336 17.98237735 -15.12939898 17 -11 17 C-11.05800781 16.19175781 -11.11601562 15.38351563 -11.17578125 14.55078125 C-11.54389122 5.83183363 -11.54389122 5.83183363 -8.875 1.75 C-5.48695834 -0.31228623 -3.89180376 -0.74523902 0 0 Z " fill="#5C70A3" transform="translate(179,74)"/>
<path d="M0 0 C2.1796875 1.59765625 2.1796875 1.59765625 4 4 C4.390625 7.234375 4.390625 7.234375 4.25 10.75 C4.21390625 11.92046875 4.1778125 13.0909375 4.140625 14.296875 C4.09421875 15.18890625 4.0478125 16.0809375 4 17 C5.53720703 16.94779297 5.53720703 16.94779297 7.10546875 16.89453125 C8.46612936 16.86637965 9.8268078 16.83908096 11.1875 16.8125 C11.86103516 16.78736328 12.53457031 16.76222656 13.22851562 16.73632812 C17.69751197 16.67092818 20.45618488 17.24369935 24 20 C25.42041821 22.84083641 25.31452272 24.85477278 25 28 C23.43359375 30.16381836 23.43359375 30.16381836 21 32 C17.671875 32.49829102 17.671875 32.49829102 13.75 32.50390625 C12.70730957 32.5180381 12.70730957 32.5180381 11.64355469 32.53245544 C9.42873483 32.56106374 7.21498953 32.56418532 5 32.5625 C2.78516772 32.56611114 0.57111508 32.57567541 -1.64355469 32.60325623 C-3.65286727 32.62772347 -5.66241377 32.6299777 -7.671875 32.63110352 C-11.1662643 33.01842909 -12.6035644 33.46642346 -15 36 C-15.45758807 39.13774675 -15.69930986 41.06102121 -13.76049805 43.66430664 C-11.50387394 45.37641183 -10.20768808 45.36858524 -7.39453125 45.37109375 C-6.49283203 45.38849609 -5.59113281 45.40589844 -4.66210938 45.42382812 C-2.78191547 45.43284893 -0.90169946 45.43813737 0.97851562 45.43945312 C8.19482754 45.58797906 13.49184796 46.97269506 19.0234375 51.74609375 C19.46945312 52.30425781 19.91546875 52.86242187 20.375 53.4375 C20.83648437 53.99308594 21.29796875 54.54867187 21.7734375 55.12109375 C25.48576087 60.80780566 25.73312258 66.39261673 25 73 C23.22274655 79.21506596 19.33415394 83.48246682 14 87 C10.26459107 88.61135287 8.10130359 89 4 89 C4.04640625 89.96421875 4.0928125 90.9284375 4.140625 91.921875 C4.19476563 93.81679688 4.19476563 93.81679688 4.25 95.75 C4.29640625 97.00296875 4.3428125 98.2559375 4.390625 99.546875 C4 103 4 103 2.171875 105.421875 C0 107 0 107 -3 107.5 C-6.75884259 106.87352624 -7.71867209 106.02227202 -10 103 C-10.390625 99.546875 -10.390625 99.546875 -10.25 95.75 C-10.21390625 94.48671875 -10.1778125 93.2234375 -10.140625 91.921875 C-10.09421875 90.95765625 -10.0478125 89.9934375 -10 89 C-11.18078125 89.04640625 -12.3615625 89.0928125 -13.578125 89.140625 C-15.13539134 89.17814949 -16.69268508 89.21454893 -18.25 89.25 C-19.02730469 89.28351563 -19.80460938 89.31703125 -20.60546875 89.3515625 C-26.38261426 89.45031712 -26.38261426 89.45031712 -29.51171875 87.16796875 C-31.57127342 84.16783005 -31.65532072 82.56785728 -31 79 C-28.33018304 75.58336351 -26.86482107 74.15303217 -22.54248047 73.38818359 C-20.59946045 73.39325928 -20.59946045 73.39325928 -18.6171875 73.3984375 C-17.92110382 73.39043121 -17.22502014 73.38242493 -16.50784302 73.37417603 C-14.2962946 73.35119108 -12.08659637 73.36054197 -9.875 73.375 C-7.65661143 73.37884886 -5.43903102 73.37542169 -3.22073364 73.35440063 C-1.21347652 73.33678264 0.79395418 73.3442727 2.80126953 73.35302734 C5.9413145 73.25305313 5.9413145 73.25305313 7.95654297 71.70556641 C9.75093721 68.7725673 8.76825517 66.1912138 8 63 C5.69312888 61.84656444 4.34650645 61.8756108 1.78125 61.859375 C-17.6564888 61.50373884 -17.6564888 61.50373884 -24 56 C-29.37839918 49.65282085 -31.43825077 44.13962082 -31.33984375 35.8515625 C-30.54265697 29.16252404 -25.99686669 24.25227161 -20.9140625 20.12109375 C-17.66553863 18.21838691 -14.72584852 18.13073153 -11 18 C-11.05220703 16.78763672 -11.05220703 16.78763672 -11.10546875 15.55078125 C-11.13253906 14.48214844 -11.15960938 13.41351563 -11.1875 12.3125 C-11.23970703 10.72888672 -11.23970703 10.72888672 -11.29296875 9.11328125 C-10.96323813 5.60934385 -10.08584712 3.80301489 -8 1 C-5.15916359 -0.42041821 -3.14522722 -0.31452272 0 0 Z " fill="#EBEEEF" transform="translate(259,310)"/>
<path d="M0 0 C1 2 1 2 0.328125 4.40625 C-0.02765625 5.4271875 -0.3834375 6.448125 -0.75 7.5 C-9.16345934 34.08419444 -8.47778939 64.56395088 4.25 89.75 C5.03117187 91.19632813 5.03117187 91.19632813 5.828125 92.671875 C7 95 7 95 7 97 C-5.54 97 -18.08 97 -31 97 C-38.33437503 79.88645826 -38.69686455 58.51043561 -32 41 C-25.21721339 24.52472097 -15.02660456 9.91116471 0 0 Z " fill="#A4C4E4" transform="translate(291,130)"/>
<path d="M0 0 C2.203125 1.609375 2.203125 1.609375 4 4 C4.390625 7.234375 4.390625 7.234375 4.25 10.75 C4.21390625 11.92046875 4.1778125 13.0909375 4.140625 14.296875 C4.09421875 15.18890625 4.0478125 16.0809375 4 17 C5.10859375 16.95359375 6.2171875 16.9071875 7.359375 16.859375 C8.82288968 16.82184898 10.28643356 16.78544971 11.75 16.75 C12.47960937 16.71648437 13.20921875 16.68296875 13.9609375 16.6484375 C17.50947276 16.58391868 19.56989637 16.68891876 22.484375 18.796875 C24.70010456 22.01767776 24.54504673 24.1846729 24 28 C22.43774414 30.18725586 22.43774414 30.18725586 20 32 C17.36256554 32.38250577 15.12872831 32.5350457 12.49609375 32.50390625 C11.77639908 32.51332748 11.05670441 32.52274872 10.31520081 32.53245544 C8.02234238 32.56107246 5.73052249 32.56418445 3.4375 32.5625 C1.14105917 32.5661066 -1.15462924 32.57561155 -3.45091248 32.60325623 C-4.87762412 32.62005847 -6.30458413 32.62290883 -7.7313385 32.61024475 C-10.58319666 32.64055984 -12.55402108 32.70535412 -14.96850586 34.30053711 C-16.31988104 36.17675519 -16.31988104 36.17675519 -15.875 39.5625 C-15.34366067 43.25442394 -15.34366067 43.25442394 -12 45 C-9.89227426 45.31688094 -9.89227426 45.31688094 -7.578125 45.30859375 C-6.28648437 45.34629883 -6.28648437 45.34629883 -4.96875 45.38476562 C-3.17194125 45.41961752 -1.37506001 45.4509311 0.421875 45.47851562 C7.41359256 45.69180463 12.35726015 46.6575715 17.75 51.4375 C22.43924889 56.77803346 24.11824628 60.09328406 24.3125 67.25 C24.36857422 68.58804688 24.36857422 68.58804688 24.42578125 69.953125 C24 73 24 73 20 81 C3.17 81 -13.66 81 -31 81 C-30.67 79.35 -30.34 77.7 -30 76 C-26.33471969 73.55647979 -24.43736366 73.7212165 -20.06640625 73.65625 C-19.39206039 73.6416272 -18.71771454 73.62700439 -18.02293396 73.61193848 C-15.86951593 73.56548747 -13.71618883 73.53126516 -11.5625 73.5 C-8.73013129 73.45878116 -5.89840308 73.40507322 -3.06640625 73.34375 C-1.80771729 73.32505859 -0.54902832 73.30636719 0.74780273 73.28710938 C4.25577384 73.17780091 4.25577384 73.17780091 8 71 C8 68.03 8 65.06 8 62 C6.52789062 61.98582031 5.05578125 61.97164062 3.5390625 61.95703125 C-17.81720088 61.52797065 -17.81720088 61.52797065 -25.5859375 54.58203125 C-29.79075866 50.0490882 -32.12105986 44.70143873 -32.4375 38.5625 C-32.18610931 32.63973544 -30.18387457 28.31609245 -26.12890625 24.015625 C-21.31214651 19.60860853 -17.69148318 17 -11 17 C-11.04640625 16.10796875 -11.0928125 15.2159375 -11.140625 14.296875 C-11.19476563 12.54117188 -11.19476563 12.54117188 -11.25 10.75 C-11.29640625 9.58984375 -11.3428125 8.4296875 -11.390625 7.234375 C-11 4 -11 4 -9.203125 1.609375 C-5.99934366 -0.7309759 -3.86645287 -0.55235041 0 0 Z " fill="#5C6FA3" transform="translate(341,146)"/>
<path d="M0 0 C0.66 0 1.32 0 2 0 C2.24008789 0.71728271 2.48017578 1.43456543 2.72753906 2.17358398 C14.28905775 36.39317774 30.04042327 66.57787638 52.50390625 94.84375 C55.41248007 98.50664251 58.21782673 102.24030639 61 106 C47.12847406 107.38715259 32.85776379 99.01652016 22.3125 90.6875 C6.69857316 77.35799711 -4.46911722 59.14248175 -6.22119141 38.37866211 C-6.33820292 35.68615244 -6.37931355 33.00751235 -6.375 30.3125 C-6.37483887 29.36004395 -6.37467773 28.40758789 -6.37451172 27.42626953 C-6.22090475 17.82664268 -4.6259056 8.54333917 0 0 Z " fill="#4C95A3" transform="translate(185,333)"/>
<path d="M0 0 C10.56 0 21.12 0 32 0 C32 5.28 32 10.56 32 16 C21.44 16 10.88 16 0 16 C0 10.72 0 5.44 0 0 Z " fill="#526392" transform="translate(420,191)"/>
<path d="M0 0 C1.30195313 0.00322266 2.60390625 0.00644531 3.9453125 0.00976562 C5.32552149 0.01812159 6.70572982 0.02658654 8.0859375 0.03515625 C9.47395676 0.04017124 10.86197772 0.04473415 12.25 0.04882812 C15.65366423 0.0606464 19.0573062 0.07858235 22.4609375 0.09765625 C22.4609375 5.37765625 22.4609375 10.65765625 22.4609375 16.09765625 C12.2309375 16.09765625 2.0009375 16.09765625 -8.5390625 16.09765625 C-8.5390625 11.14765625 -8.5390625 6.19765625 -8.5390625 1.09765625 C-5.66887809 -0.33743596 -3.20362527 -0.01392881 0 0 Z " fill="#4A5982" transform="translate(231.5390625,190.90234375)"/>
<path d="M0 0 C3.66771845 1.83385923 5.46834996 3.25062829 8.25 6.125 C8.95640625 6.84945312 9.6628125 7.57390625 10.390625 8.3203125 C10.92171875 8.87460937 11.4528125 9.42890625 12 10 C4.33333333 17.66666667 -3.33333333 25.33333333 -11 33 C-12.08839774 32.11032656 -13.17044608 31.21288426 -14.25 30.3125 C-14.85328125 29.81363281 -15.4565625 29.31476563 -16.078125 28.80078125 C-18 27 -18 27 -22 22 C-14.74 14.74 -7.48 7.48 0 0 Z " fill="#526391" transform="translate(251,41)"/>
<path d="M0 0 C5.60381599 2.801908 9.39604201 6.98774709 13.8125 11.375 C14.70904297 12.23867188 15.60558594 13.10234375 16.52929688 13.9921875 C17.37169922 14.8275 18.21410156 15.6628125 19.08203125 16.5234375 C19.85780518 17.28575684 20.6335791 18.04807617 21.43286133 18.83349609 C23 21 23 21 22.83789062 23.1574707 C21.7821622 25.47902735 20.47452021 26.99486702 18.6875 28.8125 C18.09324219 29.43769531 17.49898437 30.06289062 16.88671875 30.70703125 C15 32 15 32 13.16186523 31.84228516 C10.26256643 30.71268822 8.69848011 29.03627377 6.5234375 26.81640625 C5.688125 25.97142578 4.8528125 25.12644531 3.9921875 24.25585938 C3.12851563 23.36705078 2.26484375 22.47824219 1.375 21.5625 C0.50359375 20.67755859 -0.3678125 19.79261719 -1.265625 18.88085938 C-2.87791893 17.24235943 -4.48712282 15.60080933 -6.09228516 13.95532227 C-7.38656632 12.62874204 -8.6894698 11.3105302 -10 10 C-6.7 6.7 -3.4 3.4 0 0 Z " fill="#4A5982" transform="translate(99,41)"/>
<path d="M0 0 C3.49353838 1.74676919 5.13945763 2.91405215 7.75 5.625 C8.67039062 6.57246094 8.67039062 6.57246094 9.609375 7.5390625 C10.06828125 8.02117187 10.5271875 8.50328125 11 9 C9.52248723 12.43367006 7.59014175 14.64318259 4.9375 17.2578125 C4.14085938 18.04800781 3.34421875 18.83820313 2.5234375 19.65234375 C1.69070312 20.46832031 0.85796875 21.28429687 0 22.125 C-0.83273438 22.94871094 -1.66546875 23.77242187 -2.5234375 24.62109375 C-4.06416024 26.14436494 -5.60692335 27.66557702 -7.15234375 29.18408203 C-8.44063401 30.45024257 -9.72272668 31.72272668 -11 33 C-12.30157403 31.94966002 -13.59088725 30.88411722 -14.875 29.8125 C-15.59429687 29.22082031 -16.31359375 28.62914062 -17.0546875 28.01953125 C-19 26 -19 26 -21 21 C-14.07 14.07 -7.14 7.14 0 0 Z " fill="#4A5982" transform="translate(111,181)"/>
<path d="M0 0 C5.28 0 10.56 0 16 0 C15.67 10.56 15.34 21.12 15 32 C10.05 32 5.1 32 0 32 C0 21.44 0 10.88 0 0 Z " fill="#516290" transform="translate(168,12)"/>
<path d="M0 0 C10.56 0 21.12 0 32 0 C32 4.95 32 9.9 32 15 C21.44 15 10.88 15 0 15 C0 10.05 0 5.1 0 0 Z " fill="#4A5982" transform="translate(61,120)"/>
<path d="M0 0 C3.99620718 1.47879805 6.08866797 2.81367479 8.8125 6.125 C9.41707031 6.84945312 10.02164062 7.57390625 10.64453125 8.3203125 C11.09183594 8.87460938 11.53914063 9.42890625 12 10 C4.66666667 17.33333333 -2.66666667 24.66666667 -10 32 C-13.18086518 30.49053489 -15.29869906 28.92058175 -17.75 26.375 C-18.36359375 25.74335938 -18.9771875 25.11171875 -19.609375 24.4609375 C-20.06828125 23.97882813 -20.5271875 23.49671875 -21 23 C-19.48623919 19.43235715 -17.39486871 17.16293713 -14.6484375 14.453125 C-13.79765625 13.60878906 -12.946875 12.76445313 -12.0703125 11.89453125 C-11.18085938 11.02183594 -10.29140625 10.14914063 -9.375 9.25 C-8.4778125 8.36183594 -7.580625 7.47367187 -6.65625 6.55859375 C-4.44192996 4.36783031 -2.22307565 2.18187237 0 0 Z " fill="#526391" transform="translate(412,113)"/>
<path d="M0 0 C4.95 0 9.9 0 15 0 C15 10.56 15 21.12 15 32 C10.05 32 5.1 32 0 32 C0 21.44 0 10.88 0 0 Z " fill="#526391" transform="translate(330,84)"/>
<path d="M0 0 C1.3046875 1.328125 1.3046875 1.328125 2.875 3.25 C6.19166528 7.15567138 9.69346377 10.81521217 13.3125 14.4375 C13.84020996 14.96956055 14.36791992 15.50162109 14.91162109 16.04980469 C17.69109061 18.8749138 17.69109061 18.8749138 21 21 C19.52278578 24.45201639 17.56205999 26.64961936 14.875 29.25 C14.15054687 29.95640625 13.42609375 30.6628125 12.6796875 31.390625 C12.12539063 31.92171875 11.57109375 32.4528125 11 33 C5.81250387 28.63655925 0.84467061 24.11578879 -4 19.375 C-4.69222656 18.72015625 -5.38445312 18.0653125 -6.09765625 17.390625 C-6.74605469 16.75382812 -7.39445313 16.11703125 -8.0625 15.4609375 C-8.65160156 14.89165527 -9.24070313 14.32237305 -9.84765625 13.73583984 C-11 12 -11 12 -10.79467773 9.91748047 C-9.70370533 7.28506964 -8.09419306 5.73393174 -6.0625 3.75 C-5.35222656 3.04359375 -4.64195312 2.3371875 -3.91015625 1.609375 C-2 0 -2 0 0 0 Z " fill="#4A5982" transform="translate(263,113)"/>
<path d="M0 0 C4.95 0 9.9 0 15 0 C15 5.61 15 11.22 15 17 C10.05 17 5.1 17 0 17 C0 11.39 0 5.78 0 0 Z " fill="#4A5982" transform="translate(168,210)"/>
<path d="M0 0 C0 2.64 0 5.28 0 8 C-2.81484045 9.40742022 -4.56936113 8.66652164 -7.625 8.0625 C-8.62789062 7.86785156 -9.63078125 7.67320312 -10.6640625 7.47265625 C-11.82035156 7.23869141 -11.82035156 7.23869141 -13 7 C-3.89398281 0 -3.89398281 0 0 0 Z " fill="#5E72A5" transform="translate(223,196)"/>
</svg>
