<svg width="24" height="24" viewBox="0 0 24 24" fill="none" xmlns="http://www.w3.org/2000/svg">
<path d="M2.0397 12.8214C2.82817 13.6099 4.84442 13.9502 6.29463 14.0928C7.94947 14.2553 9.82505 14.4396 11.6885 15.5043C13.9485 16.7959 15.9407 17.4508 17.61 17.4509C19.0554 17.4509 21.2209 16.5144 21.9983 15.2857M21.9983 12.5249C21.9983 10.2363 20.9375 8.08819 19.0114 6.47657C17.1027 4.87949 14.5689 4 11.8765 4C9.0004 4 6.58804 4.54279 4.90024 5.56984C3.97039 6.13571 3.25061 6.84969 2.76088 7.6921C2.32309 8.44524 2.06851 9.30427 2.00015 10.251C1.99682 10.3341 2.04887 13.3601 2.04887 13.3601C2.04887 14.6741 2.34972 15.4424 3.14197 15.8968C3.83888 16.2964 4.78549 16.3583 5.88158 16.4299C7.40803 16.5295 9.30769 16.6537 11.2925 17.7383C13.5538 18.9743 15.53 19.7121 17.1661 19.931C17.5099 19.977 17.837 20 18.1473 20C19.4572 20 20.4369 19.5658 21.1546 18.778C22.0767 17.7656 21.9983 15.2796 21.9983 12.5249Z" stroke="#141B34" stroke-width="1.5" stroke-linecap="round" stroke-linejoin="round"/>
<path d="M10.7441 8.97646C10.7441 10.0048 9.69643 10.8414 8.40869 10.8414C7.12116 10.8414 6.07368 10.0048 6.07379 8.97646C6.07379 7.94831 7.12128 7.11182 8.40869 7.11182C9.69643 7.11182 10.7441 7.94831 10.7441 8.97646Z" stroke="#141B34" stroke-width="1.5" stroke-linecap="round" stroke-linejoin="round"/>
</svg>
