<svg width="80" height="80" viewBox="0 0 80 80" fill="none" xmlns="http://www.w3.org/2000/svg">
<defs>
  <clipPath id="rounded">
    <rect width="80" height="80" rx="10"/>
  </clipPath>
</defs>
<rect width="80" height="80" rx="10" fill="#EAF8FB"/>
<g clip-path="url(#rounded)">
<path d="M35.2183 52.2688C38.1966 54.2931 42.111 54.286 45.0819 52.2508L80 28.3314V0H0L0 28.3314L35.2183 52.2688Z" fill="#9AD9C9"/>
<path d="M40.1562 53.7821C40.1562 53.7821 43.5974 53.2677 45.0819 52.2508L80 28.3314V0H40L40.1562 53.7821Z" fill="#3EB17B"/>
<path d="M47.3423 65.4665C47.3174 65.2159 47.2107 65.0212 47.0222 64.8824C46.8337 64.7436 46.5779 64.6742 46.2547 64.6742C46.0352 64.6742 45.8498 64.7053 45.6985 64.7674C45.5473 64.8275 45.4313 64.9114 45.3505 65.0191C45.2718 65.1268 45.2325 65.249 45.2325 65.3857C45.2283 65.4997 45.2521 65.5991 45.3039 65.684C45.3578 65.769 45.4313 65.8425 45.5245 65.9047C45.6178 65.9647 45.7255 66.0175 45.8477 66.0631C45.9699 66.1066 46.1004 66.1439 46.2392 66.175L46.8109 66.3117C47.0885 66.3738 47.3433 66.4567 47.5753 66.5603C47.8073 66.6639 48.0083 66.7913 48.1781 66.9425C48.348 67.0937 48.4795 67.2718 48.5727 67.4769C48.668 67.682 48.7167 67.9171 48.7188 68.1823C48.7167 68.5717 48.6173 68.9094 48.4205 69.1952C48.2258 69.479 47.944 69.6996 47.5753 69.8571C47.2087 70.0124 46.7664 70.0901 46.2485 70.0901C45.7348 70.0901 45.2873 70.0114 44.9062 69.854C44.5271 69.6965 44.2309 69.4635 44.0175 69.1548C43.8062 68.8441 43.6954 68.4598 43.685 68.002H44.987C45.0015 68.2154 45.0626 68.3936 45.1703 68.5365C45.2801 68.6773 45.4261 68.784 45.6084 68.8565C45.7928 68.927 46.001 68.9622 46.233 68.9622C46.4609 68.9622 46.6587 68.929 46.8265 68.8627C46.9963 68.7965 47.1279 68.7043 47.2211 68.5862C47.3143 68.4681 47.3609 68.3324 47.3609 68.1792C47.3609 68.0362 47.3185 67.9161 47.2335 67.8187C47.1507 67.7214 47.0284 67.6385 46.8669 67.5701C46.7074 67.5018 46.5116 67.4396 46.2796 67.3837L45.5867 67.2097C45.0502 67.0792 44.6265 66.8751 44.3158 66.5976C44.0051 66.32 43.8508 65.9461 43.8528 65.4759C43.8508 65.0906 43.9533 64.7539 44.1605 64.466C44.3697 64.1781 44.6566 63.9533 45.0212 63.7917C45.3857 63.6301 45.8 63.5494 46.2641 63.5494C46.7364 63.5494 47.1486 63.6301 47.5007 63.7917C47.855 63.9533 48.1305 64.1781 48.3273 64.466C48.5241 64.7539 48.6256 65.0874 48.6318 65.4665H47.3423ZM49.5989 71.7898V65.2273H50.904V66.0289H50.963C51.021 65.9005 51.1049 65.77 51.2147 65.6374C51.3265 65.5028 51.4715 65.3909 51.6497 65.3018C51.8299 65.2107 52.0536 65.1651 52.3209 65.1651C52.6689 65.1651 52.9899 65.2563 53.2841 65.4386C53.5783 65.6188 53.8134 65.8912 53.9894 66.2558C54.1655 66.6183 54.2536 67.073 54.2536 67.6199C54.2536 68.1522 54.1676 68.6017 53.9957 68.9684C53.8258 69.333 53.5938 69.6095 53.2996 69.798C53.0076 69.9845 52.6803 70.0777 52.3177 70.0777C52.0609 70.0777 51.8423 70.0352 51.6621 69.9503C51.484 69.8654 51.3379 69.7587 51.224 69.6302C51.1101 69.4997 51.0231 69.3682 50.963 69.2356H50.9226V71.7898H49.5989ZM50.8946 67.6136C50.8946 67.8974 50.934 68.145 51.0127 68.3563C51.0914 68.5676 51.2054 68.7322 51.3545 68.8503C51.5037 68.9663 51.6849 69.0243 51.8983 69.0243C52.1137 69.0243 52.296 68.9653 52.4451 68.8472C52.5943 68.7271 52.7072 68.5613 52.7838 68.3501C52.8626 68.1367 52.9019 67.8912 52.9019 67.6136C52.9019 67.3381 52.8636 67.0958 52.7869 66.8865C52.7103 66.6773 52.5974 66.5137 52.4483 66.3956C52.2991 66.2775 52.1158 66.2185 51.8983 66.2185C51.6828 66.2185 51.5005 66.2754 51.3514 66.3894C51.2043 66.5033 51.0914 66.6649 51.0127 66.8741C50.934 67.0833 50.8946 67.3298 50.8946 67.6136ZM56.4597 63.6364V70H55.136V63.6364H56.4597ZM57.5201 70V65.2273H58.8437V70H57.5201ZM58.185 64.612C57.9882 64.612 57.8194 64.5468 57.6785 64.4163C57.5397 64.2837 57.4703 64.1252 57.4703 63.9409C57.4703 63.7586 57.5397 63.6022 57.6785 63.4717C57.8194 63.3391 57.9882 63.2728 58.185 63.2728C58.3818 63.2728 58.5496 63.3391 58.6884 63.4717C58.8292 63.6022 58.8997 63.7586 58.8997 63.9409C58.8997 64.1252 58.8292 64.2837 58.6884 64.4163C58.5496 64.5468 58.3818 64.612 58.185 64.612ZM62.4427 65.2273V66.2216H59.5685V65.2273H62.4427ZM60.221 64.0838H61.5447V68.5334C61.5447 68.6556 61.5634 68.7509 61.6006 68.8192C61.6379 68.8855 61.6897 68.9321 61.756 68.9591C61.8244 68.986 61.9031 68.9995 61.9922 68.9995C62.0543 68.9995 62.1164 68.9943 62.1786 68.9839C62.2407 68.9715 62.2884 68.9622 62.3215 68.956L62.5297 69.941C62.4634 69.9617 62.3702 69.9855 62.2501 70.0124C62.1299 70.0414 61.9839 70.059 61.8119 70.0653C61.4929 70.0777 61.2133 70.0352 60.973 69.9379C60.7348 69.8405 60.5494 69.6893 60.4168 69.4842C60.2842 69.2791 60.219 69.0202 60.221 68.7074V64.0838ZM63.305 70V65.2273H64.6287V70H63.305ZM63.9699 64.612C63.7731 64.612 63.6043 64.5468 63.4634 64.4163C63.3246 64.2837 63.2552 64.1252 63.2552 63.9409C63.2552 63.7586 63.3246 63.6022 63.4634 63.4717C63.6043 63.3391 63.7731 63.2728 63.9699 63.2728C64.1667 63.2728 64.3345 63.3391 64.4733 63.4717C64.6142 63.6022 64.6846 63.7586 64.6846 63.9409C64.6846 64.1252 64.6142 64.2837 64.4733 64.4163C64.3345 64.5468 64.1667 64.612 63.9699 64.612ZM68.2556 65.2273V66.2216H65.3099V65.2273H68.2556ZM65.9842 70V64.8824C65.9842 64.5364 66.0515 64.2495 66.1862 64.0217C66.3229 63.7938 66.5093 63.6229 66.7455 63.509C66.9816 63.395 67.2499 63.3381 67.5502 63.3381C67.7532 63.3381 67.9386 63.3536 68.1064 63.3847C68.2763 63.4157 68.4027 63.4437 68.4855 63.4686L68.2494 64.4629C68.1976 64.4463 68.1334 64.4308 68.0567 64.4163C67.9821 64.4018 67.9055 64.3945 67.8268 64.3945C67.6321 64.3945 67.4964 64.4401 67.4197 64.5312C67.3431 64.6203 67.3048 64.7456 67.3048 64.9072V70H65.9842ZM69.8814 71.7898C69.7137 71.7898 69.5562 71.7763 69.4091 71.7494C69.2641 71.7245 69.144 71.6924 69.0487 71.6531L69.347 70.665C69.5024 70.7126 69.6422 70.7385 69.7665 70.7426C69.8928 70.7468 70.0016 70.7178 70.0927 70.6556C70.186 70.5935 70.2616 70.4878 70.3196 70.3387L70.3973 70.1367L68.6852 65.2273H70.0772L71.0653 68.7322H71.115L72.1124 65.2273H73.5138L71.6588 70.5158C71.5697 70.7727 71.4485 70.9964 71.2952 71.187C71.144 71.3796 70.9524 71.5277 70.7204 71.6313C70.4884 71.7369 70.2087 71.7898 69.8814 71.7898Z" fill="black"/>
</g>
</svg>
